<?xml version="1.0" standalone="no"?>
<!DOCTYPE svg PUBLIC "-//W3C//DTD SVG 20010904//EN"
 "http://www.w3.org/TR/2001/REC-SVG-20010904/DTD/svg10.dtd">
<svg version="1.0" xmlns="http://www.w3.org/2000/svg"
 width="1280.000000pt" height="640.000000pt" viewBox="0 0 1280.000000 640.000000"
 preserveAspectRatio="xMidYMid meet">
<g transform="translate(0.000000,640.000000) scale(0.100000,-0.100000)"
fill="#000000" stroke="none">
<path d="M3090 6126 c-25 -6 -65 -25 -90 -42 -114 -77 -229 -130 -505 -234
-179 -67 -181 -67 -305 -73 -85 -3 -159 -13 -230 -31 -156 -38 -312 -56 -536
-63 -216 -6 -255 -2 -372 45 -56 22 -69 33 -119 99 -60 80 -140 148 -200 168
-52 18 -78 3 -142 -84 -54 -73 -88 -101 -120 -101 -11 0 -25 -9 -31 -20 -6
-11 -22 -31 -35 -44 -14 -14 -25 -32 -25 -40 0 -25 -28 -34 -75 -23 -42 10
-114 3 -116 -11 0 -4 -1 -92 -2 -197 l-2 -190 -32 -51 c-91 -143 -124 -257
-128 -439 -2 -77 -8 -153 -14 -168 -16 -42 -13 -91 10 -171 30 -102 73 -170
159 -256 84 -84 177 -149 313 -220 147 -76 182 -85 337 -84 125 0 142 3 233
33 55 18 100 31 102 29 2 -2 20 -28 40 -58 l37 -54 -37 -126 c-54 -187 -76
-331 -76 -495 0 -276 64 -491 218 -723 l54 -82 -6 -93 c-11 -150 -25 -186
-107 -273 -39 -41 -100 -96 -135 -121 -35 -26 -63 -51 -63 -56 0 -12 43 -1
112 30 31 14 62 22 68 18 20 -13 -2 -133 -55 -299 -28 -89 -28 -86 -17 -86 11
0 95 143 117 198 10 24 22 41 28 39 19 -6 29 -69 25 -144 -5 -75 5 -90 17 -26
7 43 82 176 94 169 5 -3 11 -34 15 -70 6 -64 24 -131 33 -122 2 2 6 65 8 140
4 128 14 182 29 158 9 -15 36 -391 36 -509 0 -62 4 -103 10 -103 6 0 10 2 10
4 0 2 6 62 14 133 8 70 18 173 21 228 7 99 30 211 46 221 12 7 11 -154 -2
-259 -6 -49 -8 -91 -6 -94 3 -3 15 12 26 34 l20 38 0 -40 c0 -22 -10 -94 -23
-160 -22 -111 -24 -137 -11 -123 3 3 21 61 41 129 63 225 74 259 85 259 5 0
12 -8 15 -17 17 -57 49 -130 62 -143 13 -13 14 -12 8 10 -21 78 -29 129 -22
146 8 18 9 17 17 -5 7 -18 12 -21 23 -12 19 16 22 8 38 -75 8 -45 13 -152 13
-304 l0 -235 -31 -70 c-39 -90 -65 -105 -213 -116 -113 -8 -152 -16 -243 -49
-32 -11 -70 -20 -86 -20 -51 0 -71 -46 -32 -73 24 -16 70 -14 197 10 64 12 90
13 114 4 18 -6 42 -11 55 -11 31 0 39 -17 20 -43 -9 -12 -27 -38 -40 -58 l-24
-36 -149 -7 c-196 -9 -276 -27 -403 -87 -58 -28 -127 -55 -154 -60 -65 -12
-96 -33 -96 -64 l0 -25 144 0 c116 0 145 -3 149 -14 3 -8 21 -18 40 -21 36 -7
66 3 102 35 14 12 47 20 115 25 82 6 589 18 675 15 17 0 122 -2 235 -4 113 -2
252 -9 310 -15 130 -16 203 -6 208 26 6 44 -39 68 -173 92 -92 17 -158 54
-207 117 -39 49 -43 60 -48 125 -3 39 -2 76 2 82 4 7 37 11 85 11 70 -1 85 -4
152 -39 68 -36 81 -39 176 -43 108 -5 145 5 145 37 0 21 -30 51 -52 51 -46 0
-157 47 -236 100 -49 33 -94 65 -99 72 -16 19 -61 332 -68 473 -11 190 30 725
79 1057 51 338 55 494 19 683 -13 69 -14 101 -3 236 12 141 11 367 -3 879 l-2
55 50 13 c28 8 120 16 205 19 180 6 328 -10 540 -59 131 -29 141 -30 315 -26
200 6 480 -5 595 -22 174 -27 317 -75 408 -137 75 -52 292 -335 327 -428 86
-230 226 -386 440 -490 213 -104 415 -144 830 -164 148 -8 196 -14 269 -36
149 -43 228 -82 383 -184 223 -148 294 -186 853 -459 320 -156 425 -228 835
-572 252 -211 396 -318 520 -385 171 -93 439 -188 1055 -372 321 -96 361 -110
416 -149 128 -90 203 -199 227 -329 12 -63 16 -71 48 -90 32 -19 49 -20 254
-18 1011 8 987 8 1070 -9 44 -10 123 -20 175 -24 52 -4 106 -11 119 -16 14 -5
56 -6 94 -2 52 5 76 13 98 31 62 53 24 108 -102 147 -91 28 -97 31 -250 155
-179 145 -413 292 -704 441 -157 80 -166 83 -522 169 -252 62 -261 67 -573
300 -459 345 -825 590 -1233 825 -109 63 -123 75 -174 145 -72 98 -172 196
-358 351 -206 172 -262 229 -337 345 -254 393 -641 731 -1184 1036 -231 130
-499 254 -711 328 -352 124 -442 168 -548 271 -74 71 -115 94 -189 105 -33 5
-61 20 -107 58 -100 80 -180 113 -609 253 -287 93 -428 162 -556 270 -70 59
-143 92 -328 149 -111 33 -287 65 -362 65 -77 0 -112 18 -204 104 -150 140
-289 197 -480 195 -58 0 -125 -6 -150 -13z"/>
</g>
</svg>
